<svg width="112" height="126" viewBox="0 0 112 126" fill="none" xmlns="http://www.w3.org/2000/svg">
<path d="M22.5118 61.6001H91.9769L102.044 77.0001H12.4443L22.5118 61.6001Z" fill="url(#paint0_linear_249_6082)"/>
<path d="M53.4411 61.6001H95.8921L102.044 77.0001H47.2888L53.4411 61.6001Z" fill="url(#paint1_linear_249_6082)"/>
<path fill-rule="evenodd" clip-rule="evenodd" d="M85.7871 46.6752C86.8525 45.222 87.7645 43.7167 87.9066 41.7391C88.1963 38.2083 87.1972 35.2816 84.7095 33.0822C82.1731 30.8454 79.3538 30.6572 76.4131 32.026C75.1243 32.6301 73.8744 33.3609 72.605 34.0284C71.1689 34.763 71.1427 34.7593 70.974 32.9494C70.2191 25.0021 69.5133 17.0921 68.7585 9.14481C68.4715 6.25863 67.3703 4.95209 65.1132 4.72262C63.2252 4.51526 61.5881 5.85708 60.9451 8.27831C58.01 19.3042 55.1011 30.3338 52.1399 41.3559C51.8495 42.5256 52.0012 43.3038 52.6426 44.2122C58.5616 52.7408 64.4546 61.2658 70.2885 69.8429C71.0372 70.9785 71.8433 71.3653 73.0459 71.2937C79.8787 70.9617 86.6821 70.6556 93.5116 70.3532C96.9264 70.2022 100.338 70.0808 103.733 69.8663C105.821 69.7085 107.119 68.3186 107.395 66.0874C107.678 64.039 106.709 62.2668 104.835 61.4561C104.431 61.2776 103.996 61.1251 103.592 60.9466C96.7632 58.1615 89.9053 55.4024 83.0768 52.6172C81.7287 52.0929 81.7354 52.0334 82.6991 50.7776C83.7284 49.4101 84.7806 48.0762 85.7871 46.6752ZM32.8534 70.3515C31.9059 71.7005 31.2585 73.2129 31.0875 74.9746C30.8535 78.483 31.738 81.4844 34.3368 83.6391C36.988 85.8013 39.8594 85.9967 42.8134 84.5089C44.0829 83.8414 45.2905 83.0138 46.5177 82.2496C47.6199 81.576 48.1033 81.2573 48.3345 81.4129C48.5757 81.5751 48.5427 82.2528 48.6513 83.5816C49.3271 91.7597 49.9212 99.9565 50.5415 108.157C50.6329 109.472 50.8618 110.745 51.6794 111.739C52.6372 112.904 53.7957 113.462 55.2146 113.119C57.0159 112.678 57.9669 111.299 58.4714 109.403C59.3816 106.021 60.2428 102.602 61.1267 99.2156C63.1945 91.4269 65.2361 83.6342 67.3039 75.8453C67.5382 74.9402 67.5433 74.1842 66.9736 73.3466C60.8722 64.5498 54.8003 55.7271 48.7546 46.908C48.2759 46.2045 47.7439 45.9776 46.9695 46.0191C41.3619 46.3131 35.784 46.5811 30.1797 46.8454C25.592 47.042 21.0008 47.2684 16.4096 47.4947C14.2758 47.5855 12.8706 48.9905 12.5906 51.2514C12.2939 53.6612 13.1787 55.2397 15.2089 56.0727C17.3927 56.9576 19.5468 57.8687 21.7272 58.7835C26.2379 60.6949 30.7487 62.6063 35.2661 64.4583C36.4087 64.9231 36.4825 65.4481 35.7089 66.4281C34.7192 67.6801 33.7977 69.0326 32.8534 70.3515Z" fill="#EEEEEE"/>
<path d="M12.4443 77H102.044V105C102.044 112.732 96.4728 119 89.5999 119H24.8888C18.016 119 12.4443 112.732 12.4443 105V77Z" fill="#E7E7E7"/>
<path d="M64.7111 102.2H49.7778C47.7159 102.2 46.0444 104.08 46.0444 106.4C46.0444 108.72 47.7159 110.6 49.7778 110.6H64.7111C66.773 110.6 68.4444 108.72 68.4444 106.4C68.4444 104.08 66.773 102.2 64.7111 102.2Z" fill="#C0C0C0"/>
<defs>
<linearGradient id="paint0_linear_249_6082" x1="32.8911" y1="65.1626" x2="35.3152" y2="85.4788" gradientUnits="userSpaceOnUse">
<stop stop-color="#B4B4B4"/>
<stop offset="1" stop-color="#E7E7E7"/>
</linearGradient>
<linearGradient id="paint1_linear_249_6082" x1="59.7841" y1="65.1626" x2="63.6596" y2="85.0114" gradientUnits="userSpaceOnUse">
<stop stop-color="#B4B4B4"/>
<stop offset="1" stop-color="#E7E7E7"/>
</linearGradient>
</defs>
</svg>
