<svg width="16" height="16" viewBox="0 0 16 16" fill="none" xmlns="http://www.w3.org/2000/svg">
<path d="M12.834 2.16699C13.8465 2.16699 14.6673 2.98783 14.6673 4.00033V6.33366C14.6673 6.46627 14.6146 6.59344 14.5209 6.68721C14.4271 6.78098 14.2999 6.83366 14.1673 6.83366C13.8579 6.83366 13.5612 6.95657 13.3424 7.17537C13.1236 7.39416 13.0007 7.69091 13.0007 8.00033C13.0007 8.30974 13.1236 8.60649 13.3424 8.82528C13.5612 9.04408 13.8579 9.16699 14.1673 9.16699C14.2999 9.16699 14.4271 9.21967 14.5209 9.31344C14.6146 9.40721 14.6673 9.53438 14.6673 9.66699V12.0003C14.6673 13.0128 13.8465 13.8337 12.834 13.8337H3.16732C2.15482 13.8337 1.33398 13.0128 1.33398 12.0003V9.66699C1.33398 9.53438 1.38666 9.40721 1.48043 9.31344C1.5742 9.21967 1.70138 9.16699 1.83398 9.16699C2.1434 9.16699 2.44015 9.04408 2.65894 8.82528C2.87773 8.60649 3.00065 8.30974 3.00065 8.00033C3.00065 7.69091 2.87773 7.39416 2.65894 7.17537C2.44015 6.95657 2.1434 6.83366 1.83398 6.83366C1.70138 6.83366 1.5742 6.78098 1.48043 6.68721C1.38666 6.59344 1.33398 6.46627 1.33398 6.33366V4.00033C1.33398 2.98783 2.15482 2.16699 3.16732 2.16699H12.834ZM12.834 3.16699H3.16732C3.05788 3.16699 2.94952 3.18855 2.84841 3.23043C2.74731 3.2723 2.65544 3.33369 2.57806 3.41107C2.50068 3.48845 2.4393 3.58032 2.39742 3.68142C2.35554 3.78253 2.33398 3.89089 2.33398 4.00033V5.89166C3.28948 6.11733 4.00065 6.97583 4.00065 8.00033C4.00065 9.02483 3.28948 9.88333 2.33398 10.109V12.0003C2.33398 12.1098 2.35554 12.2181 2.39742 12.3192C2.4393 12.4203 2.50068 12.5122 2.57806 12.5896C2.65544 12.667 2.74731 12.7283 2.84841 12.7702C2.94952 12.8121 3.05788 12.8337 3.16732 12.8337H12.834C12.9434 12.8337 13.0518 12.8121 13.1529 12.7702C13.254 12.7283 13.3459 12.667 13.4232 12.5896C13.5006 12.5122 13.562 12.4203 13.6039 12.3192C13.6458 12.2181 13.6673 12.1098 13.6673 12.0003V10.109C12.7118 9.88333 12.0007 9.02483 12.0007 8.00033C12.0007 6.97583 12.7118 6.11733 13.6673 5.89166V4.00033C13.6673 3.89089 13.6458 3.78253 13.6039 3.68142C13.562 3.58032 13.5006 3.48845 13.4232 3.41107C13.3459 3.33369 13.254 3.2723 13.1529 3.23043C13.0518 3.18855 12.9434 3.16699 12.834 3.16699ZM6.01398 5.11616C6.11585 5.03127 6.24727 4.99033 6.37932 5.00233C6.51138 5.01433 6.63326 5.0783 6.71815 5.18016L8.00065 6.71933L9.28315 5.18016C9.3252 5.12971 9.37677 5.08804 9.43492 5.05752C9.49307 5.027 9.55666 5.00823 9.62206 5.00229C9.68747 4.99634 9.7534 5.00334 9.8161 5.02288C9.8788 5.04242 9.93704 5.07411 9.98748 5.11616C10.0379 5.1582 10.0796 5.20977 10.1101 5.26792C10.1406 5.32607 10.1594 5.38967 10.1654 5.45507C10.1713 5.52047 10.1643 5.58641 10.1448 5.64911C10.1252 5.71181 10.0935 5.77004 10.0515 5.82049L8.92898 7.16699H9.66732C9.79485 7.16699 9.91757 7.21571 10.0104 7.30321C10.1032 7.3907 10.159 7.51034 10.1665 7.63766L10.1673 7.66699C10.1673 7.7996 10.1146 7.92678 10.0209 8.02055C9.9271 8.11431 9.79993 8.16699 9.66732 8.16699H8.58398V8.83366H9.66732C9.79485 8.83365 9.91757 8.88238 10.0104 8.96987C10.1032 9.05737 10.159 9.17701 10.1665 9.30433L10.1673 9.33366C10.1673 9.46627 10.1146 9.59344 10.0209 9.68721C9.9271 9.78098 9.79993 9.83366 9.66732 9.83366H8.58398V10.5003C8.58399 10.6279 8.53526 10.7506 8.44777 10.8434C8.36028 10.9362 8.24063 10.992 8.11332 10.9995L8.08398 11.0003C7.95138 11.0003 7.8242 10.9476 7.73043 10.8539C7.63666 10.7601 7.58398 10.6329 7.58398 10.5003V9.83366H6.33398C6.20645 9.83367 6.08373 9.78494 5.99094 9.69744C5.89815 9.60995 5.8423 9.49031 5.83482 9.36299L5.83398 9.33366C5.83398 9.20105 5.88666 9.07387 5.98043 8.98011C6.0742 8.88634 6.20138 8.83366 6.33398 8.83366H7.58398V8.16699H6.33398C6.20645 8.167 6.08373 8.11827 5.99094 8.03078C5.89815 7.94328 5.8423 7.82364 5.83482 7.69633L5.83398 7.66699C5.83398 7.53438 5.88666 7.40721 5.98043 7.31344C6.0742 7.21967 6.20138 7.16699 6.33398 7.16699H7.07198L5.94982 5.82033C5.86843 5.72266 5.8273 5.59767 5.83479 5.47076C5.84229 5.34385 5.89784 5.22457 5.99015 5.13716L6.01398 5.11616Z" fill="#777777"/>
</svg>
