<svg width="112" height="126" viewBox="0 0 112 126" fill="none" xmlns="http://www.w3.org/2000/svg">
<path fill-rule="evenodd" clip-rule="evenodd" d="M74.8239 50.4717C74.6906 52.3124 73.8353 53.7134 72.8363 55.0659C72.2076 55.9344 71.5599 56.7753 70.9122 57.6161C70.5875 58.0376 70.2629 58.4591 69.9406 58.8841C69.0369 60.0529 69.0306 60.1083 70.2948 60.5963C73.4944 61.8916 76.7009 63.1808 79.9073 64.47C83.118 65.7609 86.3286 67.0518 89.5323 68.3487C89.722 68.4317 89.9185 68.5087 90.1151 68.5857C90.3119 68.6627 90.5087 68.7398 90.6986 68.8229C92.4553 69.5775 93.3643 71.2268 93.0991 73.1334C92.8397 75.21 91.6232 76.5037 89.665 76.6505C87.2436 76.8023 84.8135 76.904 82.38 77.0059C81.6136 77.0379 80.8468 77.07 80.0799 77.1037C73.6756 77.3852 67.2958 77.67 60.8883 77.9791C59.7607 78.0457 59.0047 77.6856 58.3027 76.6288C52.8319 68.6458 47.3059 60.7113 41.7553 52.7735C41.1539 51.9281 41.0116 51.2037 41.284 50.1151C43.1326 43.2857 44.9594 36.4532 46.7863 29.6208C47.7036 26.19 48.6209 22.7593 49.541 19.3289C50.144 17.0754 51.6791 15.8265 53.4495 16.0195C55.5661 16.2331 56.5988 17.4491 56.8679 20.1354C57.2213 23.8291 57.5633 27.5142 57.9053 31.1994C58.2482 34.8937 58.5911 38.588 58.9454 42.291C59.1037 43.9755 59.1282 43.9789 60.4749 43.2952C60.8717 43.0881 61.2665 42.8745 61.6612 42.6608C62.4507 42.2336 63.2402 41.8063 64.0459 41.4315C66.8036 40.1575 69.4473 40.3327 71.8258 42.4145C74.1586 44.4615 75.0956 47.1855 74.8239 50.4717ZM21.5423 81.405C21.7027 79.7653 22.3097 78.3576 23.1982 77.1021C23.42 76.7947 23.6404 76.4853 23.8609 76.1759C24.5206 75.2499 25.1803 74.3239 25.876 73.4504C26.6013 72.5383 26.5321 72.0497 25.4608 71.6171C21.2245 69.8935 16.9946 68.1144 12.7647 66.3354C12.436 66.1985 12.1079 66.0617 11.7802 65.9251C10.0698 65.212 8.37084 64.5036 6.6523 63.8124C4.74851 63.0371 3.91877 61.568 4.197 59.3251C4.45957 57.2208 5.7773 55.9131 7.77818 55.8287C12.0821 55.6181 16.3904 55.4072 20.691 55.2243C25.9463 54.9783 31.177 54.7289 36.4355 54.4553C37.1617 54.4166 37.6606 54.6278 38.1094 55.2826C43.7787 63.4908 49.4726 71.7023 55.1941 79.8897C55.7284 80.6693 55.7236 81.3729 55.5038 82.2153C54.535 85.8375 53.5722 89.4606 52.6095 93.0837C51.6454 96.7117 50.6814 100.34 49.7112 103.967C49.4896 104.809 49.2695 105.654 49.0497 106.5H39.3469C38.9168 100.799 38.486 95.1026 38.0125 89.4157C37.9874 89.1104 37.9704 88.8421 37.9556 88.6088C37.9104 87.8968 37.8859 87.5109 37.7155 87.3973C37.514 87.2626 37.1082 87.5094 36.2222 88.0481C36.1548 88.0891 36.0847 88.1317 36.0118 88.176C35.6951 88.3717 35.3798 88.5719 35.0644 88.7722C34.2334 89.2999 33.401 89.8285 32.5382 90.2788C29.768 91.6635 27.0754 91.4816 24.5893 89.4692C22.1523 87.4637 21.3228 84.6703 21.5423 81.405ZM48.8563 107.244L48.849 107.272L48.8563 107.244Z" fill="#FCFCFC"/>
<path fill-rule="evenodd" clip-rule="evenodd" d="M14.1446 114.536C14.1464 113.433 14.1875 112.337 14.2642 111.252C14.3764 109.645 14.5633 108.059 14.8251 106.5H39.3469H49.0497H63.5991H98.7026H110.145C106.274 83.5078 86.4081 66 62.4848 66C53.1443 66 44.4208 68.6687 37.0284 73.2924C25.4855 80.5076 17.1845 92.4858 14.8251 106.5C14.5621 108.06 14.3755 109.645 14.2642 111.252C14.189 112.337 14.1463 113.433 14.1446 114.536Z" fill="#E7E7E7"/>
<path fill-rule="evenodd" clip-rule="evenodd" d="M98.5154 106C98.9262 104.473 99.1445 102.867 99.1445 101.208C99.1445 91.1514 91.0845 83 81.1445 83C71.2046 83 63.1445 91.1514 63.1445 101.208C63.1445 102.867 63.3629 104.473 63.7736 106H98.5154Z" fill="url(#paint0_linear_271_6361)"/>
<circle cx="43.6445" cy="88.5" r="10.5" fill="url(#paint1_linear_271_6361)"/>
<path fill-rule="evenodd" clip-rule="evenodd" d="M12.125 112.928C12.1875 112.021 12.2734 111.123 12.3828 110.232C12.4766 109.482 12.5859 108.738 12.7109 108C12.2578 110.678 12 113.43 12 116.232C12 115.123 12.043 114.018 12.125 112.928Z" fill="#D9D9D9"/>
<defs>
<linearGradient id="paint0_linear_271_6361" x1="71.3597" y1="88.3207" x2="82.7656" y2="114.036" gradientUnits="userSpaceOnUse">
<stop stop-color="#B4B4B4"/>
<stop offset="1" stop-color="#E7E7E7"/>
</linearGradient>
<linearGradient id="paint1_linear_271_6361" x1="37.9367" y1="82.858" x2="51.0996" y2="101.818" gradientUnits="userSpaceOnUse">
<stop stop-color="#B4B4B4"/>
<stop offset="1" stop-color="#E7E7E7"/>
</linearGradient>
</defs>
</svg>
