<svg width="16" height="16" viewBox="0 0 16 16" fill="none" xmlns="http://www.w3.org/2000/svg">
<rect x="6" y="5" width="5" height="8" fill="#FFE60A"/>
<path d="M14.2057 3.85422H12.5555L11.9287 2.77327C11.5 2.03415 10.5491 1.78045 9.80663 2.20717L8.00893 3.24052L6.21142 2.20736C5.46899 1.78064 4.518 2.03434 4.08937 2.77346L3.46255 3.85422H1.79428C1.35566 3.85422 1 4.2083 1 4.64496V6.62602C1 7.06268 1.35566 7.41676 1.79428 7.41676H2.2114C2.1993 7.49858 2.19296 7.58232 2.19296 7.66759V12.291C2.19296 13.2349 2.96151 14 3.90962 14H12.0904C13.0385 14 13.807 13.2349 13.807 12.291V7.66759C13.807 7.58232 13.8007 7.49877 13.7886 7.41676H14.2057C14.6443 7.41676 15 7.06268 15 6.62602V4.64496C15 4.2083 14.6443 3.85422 14.2057 3.85422ZM9.49629 12.0956C9.49629 12.4684 9.19267 12.7709 8.818 12.7709H7.39113C7.01665 12.7709 6.71284 12.4686 6.71284 12.0956V6.30024C6.71284 5.92743 7.01646 5.62497 7.39113 5.62497H8.818C9.19248 5.62497 9.49629 5.92724 9.49629 6.30024V12.0956Z" fill="#333333"/>
</svg>
