<svg width="87" height="86" viewBox="0 0 87 86" fill="none" xmlns="http://www.w3.org/2000/svg">
<path fill-rule="evenodd" clip-rule="evenodd" d="M58.8636 29.9811C59.7197 28.9431 60.4526 27.8679 60.5668 26.4553C60.7996 23.9333 59.9967 21.8428 57.9977 20.2718C55.9595 18.6741 53.694 18.5397 51.3309 19.5174C50.2953 19.9489 49.2909 20.4709 48.2708 20.9477C47.1168 21.4724 47.0958 21.4698 46.9602 20.177C46.3536 14.5003 45.7864 8.85028 45.1799 3.17368C44.9493 1.11212 44.0644 0.17888 42.2506 0.0149704C40.7335 -0.13314 39.418 0.8253 38.9013 2.55475C36.5427 10.4304 34.2052 18.3087 31.8257 26.1816C31.5923 27.0171 31.7142 27.573 32.2296 28.2218C36.986 34.3137 41.7214 40.403 46.4094 46.5295C47.011 47.3406 47.6588 47.6169 48.6251 47.5658C54.1158 47.3286 59.5828 47.11 65.0708 46.894C67.8148 46.7861 70.5561 46.6994 73.2845 46.5462C74.9625 46.4335 76.005 45.4407 76.2273 43.847C76.4545 42.3838 75.6756 41.118 74.1702 40.5389C73.845 40.4114 73.4961 40.3025 73.1708 40.175C67.6837 38.1856 62.1729 36.2148 56.6857 34.2254C55.6024 33.8509 55.6078 33.8084 56.3822 32.9114C57.2093 31.9346 58.0548 30.9818 58.8636 29.9811ZM16.3276 46.8928C15.5662 47.8563 15.046 48.9366 14.9086 50.195C14.7205 52.701 15.4313 54.8448 17.5196 56.3839C19.65 57.9283 21.9574 58.0679 24.3312 57.0052C25.3513 56.5284 26.3217 55.9373 27.3078 55.3914C28.1935 54.9103 28.582 54.6826 28.7678 54.7938C28.9616 54.9096 28.9351 55.3937 29.0223 56.3428C29.5654 62.1843 30.0428 68.0392 30.5412 73.8968C30.6147 74.8358 30.7986 75.7455 31.4556 76.4554C32.2253 77.2876 33.1562 77.6861 34.2964 77.4407C35.7439 77.126 36.5081 76.1413 36.9135 74.787C37.6449 72.3711 38.3369 69.9286 39.0472 67.51C40.7088 61.9466 42.3494 56.3804 44.011 50.8169C44.1993 50.1704 44.2034 49.6304 43.7456 49.0321C38.8427 42.7487 33.9635 36.4468 29.1053 30.1474C28.7207 29.6449 28.2932 29.4828 27.6709 29.5125C23.1648 29.7225 18.6825 29.9139 14.1791 30.1027C10.4925 30.2431 6.80316 30.4048 3.11376 30.5665C1.39916 30.6313 0.269961 31.6349 0.0449611 33.2498C-0.193459 34.9711 0.517561 36.0986 2.14896 36.6936C3.90376 37.3257 5.63476 37.9765 7.38686 38.6299C11.0116 39.9952 14.6363 41.3605 18.2664 42.6833C19.1845 43.0153 19.2438 43.3903 18.6222 44.0903C17.8269 44.9846 17.0864 45.9507 16.3276 46.8928Z" fill="#FCFCFC"/>
<path fill-rule="evenodd" clip-rule="evenodd" d="M59.6371 64.202L72.1949 62.0501C72.8766 61.9333 73.519 61.7198 74.0935 61.4249C74.0636 61.2696 74.0483 61.1116 74.0483 60.9525C74.0483 60.1316 74.4553 59.3443 75.1799 58.7638C75.6025 58.4253 76.1129 58.1732 76.6682 58.022C76.7111 57.6001 76.678 57.1724 76.5657 56.7517L75.2105 51.6763C75.1597 51.4859 75.0616 51.3055 74.922 51.1455C74.7823 50.9854 74.6038 50.8488 74.3966 50.7435C74.1894 50.6382 73.9576 50.5662 73.7144 50.5317C73.4712 50.4971 73.2214 50.5007 72.9793 50.5422C72.2456 50.6679 71.4809 50.5593 70.8532 50.2403C70.2255 49.9213 69.7864 49.4179 69.6324 48.841C69.4783 48.2642 69.622 47.661 70.0319 47.1641C70.4417 46.6673 71.0841 46.3176 71.8177 46.1919C72.0599 46.1504 72.2897 46.0718 72.4939 45.9606C72.6982 45.8493 72.873 45.7077 73.0083 45.5437C73.1436 45.3797 73.2367 45.1966 73.2824 45.0047C73.3281 44.8129 73.3255 44.6162 73.2746 44.4258L71.9195 39.3503C71.6114 38.1966 70.7331 37.1899 69.4778 36.5519C68.2225 35.9138 66.6929 35.6966 65.2257 35.948L32.0322 41.636C30.565 41.8874 29.2802 42.5869 28.4606 43.5805C27.6409 44.5741 27.3535 45.7805 27.6615 46.9343L29.0167 52.0097C29.0675 52.2002 29.1656 52.3806 29.3052 52.5406C29.4449 52.7007 29.6234 52.8373 29.8306 52.9426C30.0378 53.0479 30.2696 53.1199 30.5128 53.1544C30.756 53.1889 31.0058 53.1854 31.2479 53.1439C31.9816 53.0181 32.7463 53.1268 33.374 53.4458C34.0016 53.7648 34.4408 54.2681 34.5948 54.845C34.7489 55.4219 34.6051 56.0251 34.1953 56.5219C33.7855 57.0188 33.1431 57.3685 32.4095 57.4942C32.1673 57.5357 31.9375 57.6143 31.7333 57.7255C31.529 57.8367 31.3542 57.9784 31.2189 58.1424C31.0836 58.3064 30.9905 58.4895 30.9448 58.6813C30.8991 58.8731 30.9017 59.0699 30.9526 59.2603L32.3077 64.3357C32.6158 65.4895 33.4941 66.4962 34.7494 67.1342C35.371 67.4502 36.0664 67.6661 36.796 67.7697C37.5256 67.8733 38.275 67.8626 39.0015 67.7381L42.4745 67.1429L41.8513 67.1429C41.1682 67.1429 40.513 66.9255 40.03 66.5386C39.5469 66.1516 39.2755 65.6267 39.2755 65.0794C39.2755 64.5322 39.5469 64.0073 40.03 63.6203C40.513 63.2334 41.1682 63.016 41.8513 63.016L57.3058 63.016C57.989 63.016 58.6441 63.2334 59.1272 63.6203C59.3399 63.7908 59.5116 63.9879 59.6371 64.202ZM59.9979 54.5972C59.7472 54.9012 59.3658 55.1226 58.9266 55.2217C58.9963 55.2669 59.0632 55.3151 59.1272 55.3664C59.6102 55.7533 59.8816 56.2782 59.8816 56.8255C59.8816 57.3728 59.6102 57.8976 59.1272 58.2846C58.6441 58.6716 57.989 58.889 57.3058 58.889L41.8513 58.889C41.1682 58.889 40.513 58.6716 40.03 58.2846C39.5469 57.8976 39.2755 57.3728 39.2755 56.8255C39.2755 56.2782 39.5469 55.7533 40.03 55.3664C40.513 54.9794 41.1682 54.762 41.8513 54.762L45.8955 54.762C46.1667 54.4985 46.5448 54.3138 46.9685 54.2412L58.033 52.3452C58.5221 52.2614 59.0319 52.3338 59.4504 52.5464C59.8688 52.7591 60.1616 53.0947 60.2643 53.4793C60.367 53.8639 60.2712 54.266 59.9979 54.5972ZM58.4492 48.7968C58.176 49.128 57.7477 49.3611 57.2587 49.4449L46.1942 51.3409C45.7051 51.4247 45.1952 51.3523 44.7768 51.1396C44.3584 50.927 44.0656 50.5914 43.9629 50.2068C43.8602 49.8222 43.956 49.4201 44.2293 49.0889C44.5025 48.7577 44.9307 48.5245 45.4198 48.4407L56.4843 46.5447C56.9734 46.4609 57.4832 46.5333 57.9017 46.746C58.3201 46.9587 58.6129 47.2942 58.7156 47.6788C58.8182 48.0634 58.7224 48.4655 58.4492 48.7968Z" fill="url(#paint0_linear_271_6265)"/>
<path d="M72.7603 79.5237H26.3967C25.3819 79.5237 24.3771 79.3636 23.4396 79.0525C22.5021 78.7414 21.6502 78.2854 20.9327 77.7106C19.4836 76.5496 18.6694 74.9751 18.6694 73.3332V66.111C18.6694 65.84 18.7361 65.5717 18.8655 65.3214C18.9949 65.071 19.1847 64.8435 19.4239 64.6519C19.663 64.4603 19.947 64.3083 20.2595 64.2046C20.572 64.1009 20.9069 64.0475 21.2452 64.0475C22.2699 64.0475 23.2526 63.7214 23.9772 63.141C24.7018 62.5605 25.1088 61.7732 25.1088 60.9523C25.1088 60.1314 24.7018 59.3441 23.9772 58.7636C23.2526 58.1832 22.2699 57.8571 21.2452 57.8571C20.9069 57.8571 20.572 57.8037 20.2595 57.7C19.947 57.5963 19.663 57.4443 19.4239 57.2527C19.1847 57.0611 18.9949 56.8336 18.8655 56.5832C18.7361 56.3329 18.6694 56.0645 18.6694 55.7936V48.5713C18.6694 46.9295 19.4836 45.3549 20.9327 44.194C22.3818 43.0331 24.3473 42.3809 26.3967 42.3809H72.7603C74.8097 42.3809 76.7752 43.0331 78.2243 44.194C79.6735 45.3549 80.4876 46.9295 80.4876 48.5713V55.7936C80.4876 56.0645 80.421 56.3329 80.2915 56.5832C80.1621 56.8336 79.9724 57.0611 79.7332 57.2527C79.494 57.4443 79.2101 57.5963 78.8976 57.7C78.585 57.8037 78.2501 57.8571 77.9118 57.8571C77.4848 57.8571 77.065 57.9137 76.6681 58.0218C76.1128 58.1731 75.6024 58.4251 75.1798 58.7636C74.4553 59.3441 74.0482 60.1314 74.0482 60.9523C74.0482 61.1115 74.0635 61.2694 74.0935 61.4248C74.218 62.0707 74.5958 62.673 75.1798 63.141C75.9044 63.7214 76.8871 64.0475 77.9118 64.0475C78.2501 64.0475 78.585 64.1009 78.8976 64.2046C79.2101 64.3083 79.494 64.4603 79.7332 64.6519C79.9724 64.8435 80.1621 65.071 80.2915 65.3214C80.421 65.5717 80.4876 65.84 80.4876 66.111V73.3332C80.4876 74.9751 79.6735 76.5496 78.2243 77.7106C76.7752 78.8715 74.8097 79.5237 72.7603 79.5237ZM57.3058 67.1428C57.9889 67.1428 58.6441 66.9254 59.1271 66.5384C59.6102 66.1514 59.8816 65.6265 59.8816 65.0793C59.8816 64.773 59.7966 64.4738 59.6371 64.2018C59.5115 63.9878 59.3399 63.7906 59.1271 63.6202C58.6441 63.2332 57.9889 63.0158 57.3058 63.0158H41.8512C41.1681 63.0158 40.513 63.2332 40.0299 63.6202C39.5469 64.0071 39.2755 64.532 39.2755 65.0793C39.2755 65.6265 39.5469 66.1514 40.0299 66.5384C40.513 66.9254 41.1681 67.1428 41.8512 67.1428L42.4745 67.1428L57.3058 67.1428ZM57.3058 58.8888C57.9889 58.8888 58.6441 58.6714 59.1271 58.2844C59.6102 57.8974 59.8816 57.3726 59.8816 56.8253C59.8816 56.278 59.6102 55.7532 59.1271 55.3662C59.0632 55.315 58.9962 55.2667 58.9266 55.2216C58.4702 54.9255 57.8985 54.7618 57.3058 54.7618H45.8955H41.8512C41.1681 54.7618 40.513 54.9792 40.0299 55.3662C39.5469 55.7532 39.2755 56.278 39.2755 56.8253C39.2755 57.3726 39.5469 57.8974 40.0299 58.2844C40.513 58.6714 41.1681 58.8888 41.8512 58.8888H57.3058Z" fill="#E7E7E7"/>
<defs>
<linearGradient id="paint0_linear_271_6265" x1="38.2119" y1="46.8916" x2="56.9734" y2="75.6632" gradientUnits="userSpaceOnUse">
<stop stop-color="#B4B4B4"/>
<stop offset="1" stop-color="#E7E7E7"/>
</linearGradient>
</defs>
</svg>
