<svg width="24" height="24" viewBox="0 0 24 24" fill="none" xmlns="http://www.w3.org/2000/svg">
<path d="M14.8005 10.2872C14.6555 10.1422 14.5015 10.0112 14.3425 9.89023L14.3415 9.89124C14.1785 9.73324 13.9555 9.63623 13.7105 9.63623C13.2075 9.63623 12.7995 10.0442 12.7995 10.5472C12.7995 10.7702 12.8795 10.9732 13.0125 11.1322C13.0765 11.2082 13.1525 11.2732 13.2375 11.3252C13.3235 11.3962 13.4075 11.4662 13.4865 11.5452L13.5615 11.6202C14.5055 12.5632 14.2235 14.1872 13.2795 15.1312L9.2515 19.1582C8.3075 20.1012 6.77249 20.1012 5.82849 19.1582L5.75251 19.0832C4.80851 18.1392 4.80851 16.6032 5.75251 15.6612L7.5325 13.8822C7.7605 13.7012 7.9075 13.4212 7.9075 13.1072C7.9075 12.5602 7.46448 12.1172 6.91748 12.1172C6.71148 12.1172 6.52048 12.1802 6.36148 12.2882L6.36051 12.2852L6.34149 12.3032C6.27149 12.3532 6.20751 12.4122 6.15351 12.4792L4.3035 14.2102C2.5655 15.9492 2.5655 18.7952 4.3035 20.5322L4.37848 20.6072C6.11748 22.3452 8.9615 22.3452 10.7005 20.6072L14.7275 16.5792C16.4635 14.8402 16.6105 12.0982 14.8745 10.3602L14.8005 10.2872Z" fill="black"/>
<path d="M20.6066 4.37923L20.5316 4.30425C18.7926 2.56525 15.9486 2.56525 14.2096 4.30425L10.1826 8.33223C8.44458 10.0712 8.34857 12.5822 10.0866 14.3212L10.1606 14.3942C10.2396 14.4732 10.3216 14.5473 10.4056 14.6193C10.4656 14.6863 10.5376 14.7442 10.6166 14.7902L10.6176 14.7923L10.6186 14.7912C10.7446 14.8642 10.8906 14.9052 11.0466 14.9052C11.5216 14.9052 11.9066 14.5203 11.9066 14.0463C11.9066 13.9113 11.8756 13.7853 11.8206 13.6713C11.7066 13.4163 11.4946 13.2612 11.3466 13.1142L11.2726 13.0412C10.3286 12.0972 10.6876 10.7252 11.6316 9.78124L15.6616 5.75423C16.6026 4.81023 18.1386 4.81023 19.0826 5.75423L19.1576 5.82824C20.1016 6.77224 20.1016 8.30924 19.1576 9.25124L17.3836 11.0272C17.1426 11.2052 16.9856 11.4922 16.9856 11.8162C16.9856 12.3572 17.4246 12.7972 17.9666 12.7972C18.1556 12.7972 18.3316 12.7442 18.4816 12.6512C18.4826 12.6532 18.4836 12.6552 18.4846 12.6572L18.5126 12.6323C18.5966 12.5753 18.6726 12.5053 18.7356 12.4253L20.6046 10.7002C22.3446 8.96225 22.3446 6.11823 20.6066 4.37923Z" fill="black"/>
</svg>
