<svg width="16" height="16" viewBox="0 0 16 16" fill="none" xmlns="http://www.w3.org/2000/svg">
<path d="M7.6667 1C11.3487 1 14.333 3.98501 14.333 7.66701C14.333 11.349 11.3487 14.334 7.6667 14.334C3.9847 14.334 1 11.349 1 7.66701C1 3.98501 3.9847 1 7.6667 1ZM7.6667 2.33401C4.721 2.33401 2.3333 4.72101 2.3333 7.66701C2.3333 10.613 4.721 13 7.6667 13C10.6123 13 13 10.613 13 7.66701C13 4.72101 10.6123 2.33401 7.6667 2.33401ZM7.6667 4C7.6721 4 7.6776 4.00001 7.683 4.00101C7.6885 4.00101 7.6939 4.00101 7.6993 4.00201C7.7047 4.00201 7.7102 4.00301 7.7156 4.00401C7.721 4.00501 7.7263 4.006 7.7317 4.007C7.737 4.008 7.7424 4.00901 7.7477 4.01001C7.7529 4.01201 7.7582 4.01301 7.7634 4.01501C7.7686 4.01601 7.7738 4.018 7.779 4.02C7.7841 4.022 7.7892 4.024 7.7942 4.026C7.7992 4.028 7.8042 4.03001 7.8092 4.03201C7.8141 4.03501 7.819 4.03701 7.8238 4.04001C7.8286 4.04201 7.8333 4.045 7.838 4.048C7.8427 4.05 7.8473 4.05301 7.8518 4.05602C7.8564 4.05902 7.8608 4.06301 7.8652 4.06601C7.8696 4.06901 7.8739 4.072 7.8781 4.076C7.8823 4.079 7.8865 4.08301 7.8905 4.08701C7.8945 4.09001 7.8985 4.09401 7.9024 4.09801C7.9062 4.10201 7.91 4.106 7.9136 4.11C7.9173 4.114 7.9209 4.11801 7.9243 4.12201C7.9278 4.12601 7.9311 4.13101 7.9344 4.13501C7.9376 4.13901 7.9408 4.14401 7.9438 4.14801C7.9468 4.15301 7.9498 4.158 7.9526 4.162C7.9554 4.167 7.958 4.17201 7.9606 4.17601C7.9632 4.18101 7.9656 4.18601 7.968 4.19101C7.9703 4.19601 7.9725 4.20101 7.9746 4.20601C7.9767 4.21101 7.9787 4.21601 7.9805 4.22101C7.9823 4.22601 7.984 4.23201 7.9856 4.23701C7.9872 4.24201 7.9887 4.24701 7.99 4.25301C7.9913 4.25801 7.9925 4.26301 7.9936 4.26901C7.9946 4.27401 7.9956 4.279 7.9964 4.285C7.9972 4.29 7.9978 4.29501 7.9984 4.30101C7.9989 4.30601 7.9993 4.312 7.9996 4.317C7.9998 4.323 8 4.32801 8 4.33401V8H10.6667C10.6721 8 10.6776 8.00001 10.683 8.00101C10.6885 8.00101 10.6939 8.00101 10.6993 8.00201C10.7047 8.00201 10.7102 8.00301 10.7156 8.00401C10.721 8.00501 10.7263 8.006 10.7317 8.007C10.737 8.008 10.7424 8.00901 10.7477 8.01001C10.7529 8.01201 10.7582 8.01301 10.7634 8.01501C10.7686 8.01601 10.7738 8.018 10.779 8.02C10.7841 8.022 10.7892 8.024 10.7942 8.026C10.7992 8.028 10.8042 8.03001 10.8092 8.03201C10.8141 8.03501 10.819 8.03701 10.8238 8.04001C10.8286 8.04201 10.8333 8.045 10.838 8.048C10.8427 8.05 10.8473 8.05302 10.8518 8.05602C10.8564 8.05901 10.8608 8.06301 10.8652 8.06601C10.8696 8.06901 10.8739 8.072 10.8781 8.076C10.8823 8.079 10.8865 8.08301 10.8905 8.08701C10.8945 8.09001 10.8985 8.09401 10.9024 8.09801C10.9062 8.10201 10.91 8.106 10.9136 8.11C10.9173 8.114 10.9209 8.11801 10.9243 8.12201C10.9278 8.12601 10.9311 8.13101 10.9344 8.13501C10.9376 8.13901 10.9408 8.14401 10.9438 8.14801C10.9468 8.15301 10.9498 8.158 10.9526 8.162C10.9554 8.167 10.9581 8.17201 10.9606 8.17601C10.9632 8.18101 10.9656 8.18601 10.968 8.19101C10.9703 8.19601 10.9725 8.20101 10.9746 8.20601C10.9767 8.21101 10.9787 8.21601 10.9805 8.22101C10.9823 8.22601 10.984 8.23201 10.9856 8.23701C10.9872 8.24201 10.9887 8.24701 10.99 8.25301C10.9913 8.25801 10.9925 8.26301 10.9936 8.26901C10.9946 8.27401 10.9956 8.279 10.9964 8.285C10.9972 8.29 10.9978 8.29501 10.9984 8.30101C10.9989 8.30601 10.9993 8.312 10.9996 8.317C10.9998 8.323 11 8.32801 11 8.33401V9C11 9.006 10.9998 9.01101 10.9996 9.01701C10.9993 9.02201 10.9989 9.02701 10.9984 9.033C10.9978 9.038 10.9972 9.04401 10.9964 9.04901C10.9956 9.05501 10.9946 9.06 10.9936 9.065C10.9925 9.071 10.9913 9.07601 10.99 9.08101C10.9887 9.08701 10.9872 9.092 10.9856 9.097C10.984 9.102 10.9823 9.10701 10.9805 9.11301C10.9787 9.11801 10.9767 9.12301 10.9746 9.12801C10.9725 9.13301 10.9703 9.13801 10.968 9.14301C10.9656 9.14801 10.9632 9.15301 10.9606 9.15701C10.958 9.16201 10.9554 9.16701 10.9526 9.17201C10.9498 9.17601 10.9468 9.18101 10.9438 9.18501C10.9408 9.19001 10.9376 9.19401 10.9344 9.19901C10.9311 9.203 10.9278 9.20701 10.9243 9.21201C10.9209 9.21601 10.9173 9.22001 10.9136 9.22401C10.91 9.22801 10.9062 9.23201 10.9024 9.23601C10.8985 9.24001 10.8945 9.24401 10.8905 9.24701C10.8865 9.25101 10.8823 9.25401 10.8781 9.25801C10.8739 9.26101 10.8696 9.26501 10.8652 9.26801C10.8608 9.27101 10.8564 9.27401 10.8518 9.27701C10.8473 9.28001 10.8427 9.28301 10.838 9.28601C10.8333 9.28901 10.8286 9.29201 10.8238 9.29401C10.819 9.29701 10.8141 9.299 10.8092 9.302C10.8042 9.304 10.7992 9.30601 10.7942 9.30801C10.7892 9.31001 10.7841 9.31201 10.779 9.31401C10.7738 9.31601 10.7686 9.318 10.7634 9.319C10.7582 9.321 10.7529 9.32201 10.7477 9.32401C10.7424 9.32501 10.737 9.32601 10.7317 9.32701C10.7263 9.32801 10.721 9.329 10.7156 9.33C10.7102 9.331 10.7047 9.331 10.6993 9.332C10.6939 9.333 10.6885 9.33301 10.683 9.33301C10.6776 9.33301 10.6721 9.33401 10.6667 9.33401H7C6.9945 9.33401 6.9891 9.33301 6.9836 9.33301C6.9782 9.33301 6.9727 9.333 6.9673 9.332C6.9619 9.331 6.9565 9.331 6.9511 9.33C6.9457 9.329 6.9403 9.32801 6.935 9.32701C6.9296 9.32601 6.9243 9.32501 6.919 9.32401C6.9137 9.32201 6.9085 9.321 6.9032 9.319C6.898 9.318 6.8928 9.31601 6.8877 9.31401C6.8825 9.31201 6.8775 9.31001 6.8724 9.30801C6.8674 9.30601 6.8624 9.304 6.8575 9.302C6.8525 9.299 6.8477 9.29701 6.8429 9.29401C6.8381 9.29201 6.8333 9.28901 6.8286 9.28601C6.8239 9.28301 6.8193 9.28001 6.8148 9.27701C6.8103 9.27401 6.8058 9.27101 6.8014 9.26801C6.797 9.26501 6.7927 9.26101 6.7885 9.25801C6.7843 9.25401 6.7802 9.25101 6.7761 9.24701C6.7721 9.24401 6.7681 9.24001 6.7643 9.23601C6.7604 9.23201 6.7567 9.22801 6.753 9.22401C6.7493 9.22001 6.7458 9.21601 6.7423 9.21201C6.7388 9.20701 6.7355 9.203 6.7323 9.19901C6.729 9.19401 6.7259 9.19001 6.7228 9.18501C6.7198 9.18101 6.7169 9.17601 6.7141 9.17201C6.7113 9.16701 6.7086 9.16201 6.706 9.15701C6.7034 9.15301 6.701 9.14801 6.6987 9.14301C6.6963 9.13801 6.6941 9.13301 6.692 9.12801C6.6899 9.12301 6.688 9.11801 6.6861 9.11301C6.6843 9.10701 6.6826 9.102 6.681 9.097C6.6794 9.092 6.678 9.08701 6.6766 9.08101C6.6753 9.07601 6.6741 9.071 6.6731 9.065C6.672 9.06 6.6711 9.05501 6.6703 9.04901C6.6695 9.04401 6.6688 9.038 6.6683 9.033C6.6677 9.02701 6.6673 9.02201 6.6671 9.01701C6.6668 9.01101 6.6667 9.006 6.6667 9V4.33401C6.6667 4.32801 6.6668 4.323 6.6671 4.317C6.6673 4.312 6.6677 4.30601 6.6683 4.30101C6.6688 4.29501 6.6695 4.29 6.6703 4.285C6.6711 4.279 6.672 4.27401 6.6731 4.26901C6.6741 4.26301 6.6753 4.25801 6.6766 4.25301C6.678 4.24701 6.6794 4.24201 6.681 4.23701C6.6826 4.23201 6.6843 4.22601 6.6861 4.22101C6.688 4.21601 6.6899 4.21101 6.692 4.20601C6.6941 4.20101 6.6963 4.19601 6.6987 4.19101C6.701 4.18601 6.7034 4.18101 6.706 4.17601C6.7086 4.17201 6.7113 4.167 6.7141 4.162C6.7169 4.158 6.7198 4.15301 6.7228 4.14801C6.7259 4.14401 6.729 4.13901 6.7323 4.13501C6.7355 4.13101 6.7388 4.12601 6.7423 4.12201C6.7458 4.11801 6.7493 4.114 6.753 4.11C6.7567 4.106 6.7604 4.10201 6.7643 4.09801C6.7681 4.09401 6.7721 4.09001 6.7761 4.08701C6.7802 4.08301 6.7843 4.079 6.7885 4.076C6.7927 4.072 6.797 4.06901 6.8014 4.06601C6.8058 4.06301 6.8103 4.05902 6.8148 4.05602C6.8193 4.05301 6.8239 4.05 6.8286 4.048C6.8333 4.045 6.8381 4.04201 6.8429 4.04001C6.8477 4.03701 6.8525 4.03501 6.8575 4.03201C6.8624 4.03001 6.8674 4.028 6.8724 4.026C6.8775 4.024 6.8825 4.022 6.8877 4.02C6.8928 4.018 6.898 4.01601 6.9032 4.01501C6.9085 4.01301 6.9137 4.01201 6.919 4.01001C6.9243 4.00901 6.9296 4.008 6.935 4.007C6.9403 4.006 6.9457 4.00501 6.9511 4.00401C6.9565 4.00301 6.9619 4.00201 6.9673 4.00201C6.9727 4.00101 6.9782 4.00101 6.9836 4.00101C6.9891 4.00001 6.9945 4 7 4H7.6667Z" fill="#777777"/>
</svg>
