<svg width="16" height="16" viewBox="0 0 16 16" fill="none" xmlns="http://www.w3.org/2000/svg">
<path d="M7.05952 5.60687C7.05952 5.60687 7.45952 5.42689 7.71282 5.71289C7.96622 6.00689 8.61282 7.12689 8.61282 8.24689C8.61282 9.36689 8.33282 10.5599 8.03282 10.9529C7.74622 11.3529 7.45952 11.3529 7.23952 11.2069C7.02622 11.0669 3.66622 8.49988 3.48622 8.42688C3.29952 8.35288 3.23282 8.53288 3.41282 9.49988C3.59282 10.4999 3.29952 10.7729 3.04622 10.8129C2.79952 10.8329 2.03952 10.6329 1.99952 8.60687C1.96622 6.58687 2.50622 6.25989 2.75952 6.25989C3.23282 6.25989 6.84622 9.49987 7.09282 9.47287C7.31282 9.43987 7.41952 8.06689 6.99952 6.97989C6.51952 5.80689 7.05952 5.60687 7.05952 5.60687ZM12.8662 3.58688C14.0795 5.99288 13.9995 8.27288 13.9995 8.49988C13.9995 8.72688 14.0795 11.0069 12.8662 13.4129C12.8662 13.4129 12.5528 13.7799 12.0795 13.5599C11.6128 13.3399 11.7728 12.7669 11.7728 12.7669C11.7728 12.7669 12.7595 10.8669 12.7328 8.53287V8.49988C12.7595 6.16688 11.7728 4.23288 11.7728 4.23288C11.7728 4.23288 11.6128 3.65988 12.0795 3.43988C12.5528 3.21988 12.8662 3.58688 12.8662 3.58688ZM10.5128 4.66687C11.5062 6.47287 11.4395 8.27288 11.4262 8.49988C11.4395 8.72688 11.5062 10.4469 10.5128 12.3999C10.5128 12.3999 10.1995 12.7669 9.72622 12.5469C9.25952 12.3269 9.41952 11.7529 9.41952 11.7529C9.41952 11.7529 10.0595 10.8329 10.1595 8.53287V8.49988C10.0928 6.18688 9.41952 5.31988 9.41952 5.31988C9.41952 5.31988 9.25952 4.73988 9.72622 4.52688C10.1995 4.30688 10.5128 4.66687 10.5128 4.66687Z" fill="#777777"/>
</svg>
