<svg width="16" height="16" viewBox="0 0 16 16" fill="none" xmlns="http://www.w3.org/2000/svg">
<rect x="6" y="8" width="4" height="5" fill="#FFE60A"/>
<path d="M10.1562 6.75938V5.22188C10.1562 4.02969 9.19063 3.06406 7.99844 3.06406C6.80625 3.06406 5.84062 4.03125 5.84062 5.22344V6.76094H10.1562V6.75938ZM4.17344 6.77656L4.17188 6.72813V5.03906C4.17188 4.10313 4.54375 3.20469 5.20625 2.54219C5.86875 1.87969 6.76562 1.50781 7.70312 1.50781H8.29531C10.2453 1.50781 11.825 3.08906 11.825 5.0375V6.77656C12.7344 6.90313 13.4109 7.68125 13.4109 8.6V12.6359C13.4109 13.6531 12.5875 14.4766 11.5703 14.4766H4.42656C3.40937 14.4766 2.58594 13.6531 2.58594 12.6359V8.60156C2.58594 7.68281 3.2625 6.90469 4.17344 6.77656ZM7.57344 10.9328V12.1359C7.57344 12.3703 7.76406 12.5609 7.99844 12.5609C8.23281 12.5609 8.42344 12.3703 8.42344 12.1359V10.9328C8.94687 10.7281 9.25156 10.1797 9.14688 9.62813C9.04219 9.075 8.56094 8.675 7.99844 8.675C7.43594 8.675 6.95312 9.075 6.85 9.62813C6.74531 10.1797 7.05 10.7281 7.57344 10.9328Z" fill="#333333"/>
</svg>
