<svg width="100" height="100" viewBox="0 0 100 100" fill="none" xmlns="http://www.w3.org/2000/svg">
<rect width="100" height="100" rx="32" fill="#FFE60A"/>
<path d="M32.0321 58.9269C29.8657 58.4231 27.7832 57.9482 25.7147 57.459C24.5128 57.1711 23.2968 56.9553 22.1508 56.5091C19.649 55.5306 18.2234 52.9114 18.5449 50.1051C18.8524 47.3565 20.7112 45.3993 23.3807 44.9389C29.3206 43.9314 35.2466 42.9097 41.1865 41.9167C41.7456 41.8303 41.9412 41.6289 42.0111 40.9813C42.2208 38.9954 42.5702 37.0094 42.8916 35.0378C43.5066 31.2387 44.1635 27.4538 44.7645 23.6546C45.2816 20.4455 47.7414 18.2436 50.7324 18.3875C53.3739 18.5171 55.7499 20.6038 56.3508 23.3524C56.9239 25.9428 57.4829 28.5331 58.042 31.1235C58.0839 31.2818 58.1258 31.4402 58.1817 31.6272C61.592 30.5911 64.6667 31.1091 67.1545 33.8002C69.6004 36.4626 70.2713 39.5998 68.9854 43.1687C69.265 43.2407 69.4886 43.3126 69.7262 43.3702C72.4376 44.0034 75.163 44.6222 77.8744 45.2554C80.3202 45.831 82.1372 47.8746 82.4446 50.3642C82.7661 53.0121 81.6759 55.4586 79.4537 56.5379C78.4474 57.0273 77.2874 57.2143 76.1693 57.4158C70.6906 58.3655 65.2118 59.2866 59.7331 60.2077C59.3837 60.2651 59.0483 60.2795 58.9784 60.8409C58.7268 62.9419 58.4193 65.0574 58.0839 67.1441C57.4829 70.9145 56.8121 74.6849 56.2111 78.4553C55.7359 81.4198 53.6255 83.5497 50.8721 83.7225C48.1188 83.8951 45.4353 81.9236 44.7365 79.0885C44.0796 76.3974 43.5345 73.6919 42.9336 70.9865C42.8916 70.8281 42.8497 70.6698 42.7938 70.4827C39.3836 71.5189 36.3088 71.0009 33.821 68.3097C31.4031 65.6474 30.7462 62.5102 32.0321 58.9269ZM45.2956 64.5249C45.5751 65.7481 45.8127 66.813 46.0643 67.878C46.8469 71.3174 47.6156 74.7569 48.4263 78.1963C48.6639 79.2037 49.4465 79.9233 50.2851 79.9952C51.2635 80.0815 52.0741 79.621 52.5353 78.6569C52.689 78.3258 52.7869 77.9373 52.8568 77.5631C53.0804 76.2679 53.276 74.9727 53.4857 73.6776C54.2544 69.0149 55.0231 64.3522 55.7638 59.6895C55.8058 59.4017 55.666 58.97 55.4564 58.7541C51.3613 54.5088 47.2522 50.2778 43.1292 46.0613C42.9196 45.8454 42.4723 45.7447 42.1649 45.7879C41.2424 45.8886 40.334 46.1045 39.4255 46.2627C34.3102 47.1694 29.1809 48.0761 24.0655 48.997C22.9474 49.1985 22.2905 50.0763 22.3465 51.2421C22.4024 52.2926 23.1711 53.1129 24.373 53.3863C27.6155 54.1202 30.858 54.8542 34.0865 55.5881C35.3863 55.8903 36.6861 56.1926 38.0698 56.5235C37.9021 56.8114 37.8042 57.0273 37.6785 57.2143C37.1194 58.0922 36.5464 58.97 35.9873 59.8478C35.1487 61.1718 34.9251 62.5821 35.4283 64.0931C36.4206 67.0433 39.9566 68.2234 42.5702 66.4677C43.4507 65.8489 44.3172 65.2157 45.2956 64.5249ZM55.7219 37.585C55.3445 35.9445 55.0091 34.4478 54.6597 32.9367C54.0028 30.001 53.3459 27.0797 52.6751 24.1439C52.3676 22.8055 51.4871 22.0428 50.355 22.1004C49.2369 22.1579 48.3983 23.1222 48.1607 24.59C47.2243 30.4327 46.2739 36.2754 45.3095 42.1182C45.2257 42.6362 45.3235 42.9529 45.6729 43.3126C49.8518 47.5435 54.0168 51.7889 58.1678 56.0342C58.4473 56.3221 58.6849 56.4228 59.0762 56.3221C59.6632 56.1638 60.2642 56.1062 60.8512 56.0054C66.2461 55.0413 71.6409 54.0914 77.0358 53.1273C78.0561 52.9402 78.699 52.1055 78.699 51.0406C78.699 49.8893 77.9443 49.0258 76.6864 48.7381C73.0386 47.9178 69.3907 47.083 65.7429 46.2627C64.8345 46.0613 63.926 45.831 62.9197 45.5865C63.6744 44.4063 64.3593 43.3558 65.0301 42.3053C65.7569 41.1827 66.0364 39.9451 65.7429 38.6211C65.0301 35.3113 61.2985 33.7858 58.4613 35.671C57.5947 36.2467 56.7142 36.8799 55.7219 37.585Z" fill="black"/>
</svg>
