<svg width="16" height="16" viewBox="0 0 16 16" fill="none" xmlns="http://www.w3.org/2000/svg">
<path d="M8.03176 1.01796C4.17242 1.01796 1.03088 4.15774 1.03088 8.01708C1.03264 11.8782 4.17242 15.018 8.03176 15.018C11.8911 15.018 15.0309 11.8782 15.0309 8.01884C15.0309 4.15949 11.8911 1.01796 8.03176 1.01796ZM11.863 9.60013V9.62997C11.863 9.63874 11.8613 9.64752 11.8613 9.65805C11.8613 9.66331 11.8613 9.66858 11.8595 9.67385C11.8595 9.68262 11.8578 9.6914 11.856 9.70017C11.856 9.70544 11.8543 9.71246 11.8543 9.71772C11.8525 9.72474 11.8525 9.73176 11.8507 9.73878C11.849 9.7458 11.8472 9.75458 11.8472 9.7616C11.8455 9.76686 11.8455 9.77213 11.8437 9.77564C11.842 9.78617 11.8385 9.7967 11.8367 9.80723C11.8367 9.80898 11.8349 9.81074 11.8349 9.81249C11.7963 9.96167 11.7191 10.1038 11.6015 10.2214L9.55339 12.2696C9.20238 12.6206 8.62848 12.6206 8.27922 12.2696C7.92821 11.9185 7.92821 11.3446 8.27922 10.9954L8.78643 10.4882H5.10083C4.60416 10.4882 4.19874 10.0828 4.19874 9.58609C4.19874 9.08942 4.60416 8.684 5.10083 8.684H10.9627C11.1944 8.684 11.426 8.77175 11.6015 8.94726C11.777 9.12276 11.8648 9.35443 11.8648 9.58609C11.8648 9.59136 11.863 9.59662 11.863 9.60013ZM11.8648 6.44983C11.8648 6.9465 11.4594 7.35192 10.9627 7.35192H5.10083C4.86917 7.35192 4.6375 7.26417 4.462 7.08866C4.28649 6.91316 4.19874 6.68149 4.19874 6.44983V6.43579V6.4077C4.19874 6.39893 4.2005 6.3884 4.2005 6.37962C4.2005 6.37436 4.2005 6.36909 4.20225 6.36383C4.20225 6.35505 4.20401 6.34628 4.20576 6.3375C4.20576 6.33224 4.20752 6.32522 4.20752 6.31995C4.20927 6.31293 4.20927 6.30591 4.21103 6.29889C4.21278 6.29187 4.21454 6.2831 4.21454 6.27608C4.21629 6.27081 4.21629 6.26555 4.21805 6.26204C4.2198 6.25151 4.22331 6.24098 4.22507 6.23045C4.22507 6.22869 4.22682 6.22694 4.22682 6.22518C4.26543 6.076 4.34265 5.93384 4.46024 5.81626L6.50663 3.76987C6.85764 3.41886 7.43154 3.41886 7.78079 3.76987C8.1318 4.12088 8.1318 4.69478 7.78079 5.04403L7.27709 5.54949H10.9627C11.4576 5.54949 11.8648 5.9549 11.8648 6.44983Z" fill="#333333"/>
</svg>
