<svg width="16" height="16" viewBox="0 0 16 16" fill="none" xmlns="http://www.w3.org/2000/svg">
<path d="M4.71752 6.64505L6.29502 9.03755C6.32556 9.07581 6.3442 9.12219 6.34863 9.17095C6.35305 9.2197 6.34306 9.26868 6.3199 9.31181C6.29674 9.35494 6.26142 9.39032 6.21833 9.41356C6.17525 9.4368 6.12628 9.44688 6.07752 9.44255H2.92252C2.87376 9.44688 2.82479 9.4368 2.78171 9.41356C2.73862 9.39032 2.7033 9.35494 2.68014 9.31181C2.65698 9.26868 2.64699 9.2197 2.65141 9.17095C2.65584 9.12219 2.67448 9.07581 2.70502 9.03755L4.28252 6.64505C4.30432 6.60657 4.33594 6.57457 4.37415 6.55231C4.41236 6.53004 4.4558 6.51831 4.50002 6.51831C4.54424 6.51831 4.58768 6.53004 4.62589 6.55231C4.6641 6.57457 4.69572 6.60657 4.71752 6.64505ZM11.2825 9.32505L9.70502 6.93255C9.67448 6.89429 9.65584 6.84791 9.65141 6.79915C9.64699 6.7504 9.65698 6.70141 9.68014 6.65828C9.7033 6.61516 9.73862 6.57978 9.78171 6.55653C9.82479 6.53329 9.87376 6.52321 9.92252 6.52755H13.0775C13.1263 6.52321 13.1752 6.53329 13.2183 6.55653C13.2614 6.57978 13.2967 6.61516 13.3199 6.65828C13.3431 6.70141 13.3531 6.7504 13.3486 6.79915C13.3442 6.84791 13.3256 6.89429 13.295 6.93255L11.7175 9.32505C11.6957 9.36352 11.6641 9.39552 11.6259 9.41779C11.5877 9.44005 11.5442 9.45179 11.5 9.45179C11.4558 9.45179 11.4124 9.44005 11.3742 9.41779C11.3359 9.39552 11.3043 9.36352 11.2825 9.32505Z" fill="white"/>
<path d="M12.1725 8.00004H11.1725C11.1728 7.40266 10.996 6.81861 10.6643 6.32176C10.3326 5.82491 9.86106 5.43758 9.30924 5.20877C8.75742 4.97996 8.15013 4.91995 7.5642 5.03632C6.97827 5.15269 6.44001 5.44022 6.0175 5.86254L5.31 5.15504C5.87283 4.59393 6.58925 4.21211 7.36886 4.05778C8.14848 3.90344 8.95633 3.98351 9.69049 4.28787C10.4246 4.59223 11.0522 5.10724 11.4939 5.76791C11.9357 6.42858 12.1718 7.2053 12.1725 8.00004ZM8.15 12.02C7.08424 12.0187 6.06251 11.5948 5.3089 10.8411C4.55529 10.0875 4.13133 9.0658 4.13 8.00004H5.13C5.12969 8.59802 5.30691 9.18263 5.6392 9.67979C5.97149 10.1769 6.44389 10.5643 6.99654 10.7927C7.54918 11.0211 8.15719 11.0802 8.74351 10.9627C9.32983 10.8452 9.86807 10.5563 10.29 10.1325L11 10.84C10.6267 11.2156 10.1826 11.5133 9.69333 11.7158C9.20409 11.9184 8.67951 12.0218 8.15 12.02Z" fill="white"/>
</svg>
