<svg width="13" height="15" viewBox="0 0 13 15" fill="none" xmlns="http://www.w3.org/2000/svg">
<path d="M11.7 1.68994C11.57 2.20994 11.44 2.72994 10.92 3.24994C10.4 3.63994 9.88 3.89994 9.1 3.89994H3.9C3.12 3.89994 2.6 3.63994 2.08 3.11994C1.69 2.72994 1.43 2.20994 1.3 1.68994C0.52 2.20994 -2.28516e-08 2.98994 0 3.89994V11.6999C0 13.1299 1.17 14.2999 2.6 14.2999H10.4C11.83 14.2999 13 13.1299 13 11.6999V3.89994C13 2.98994 12.48 2.07994 11.7 1.68994ZM9.62 7.66994L7.02 10.2699C6.89 10.3999 6.76 10.3999 6.5 10.3999C6.24 10.3999 6.11 10.2699 5.98 10.2699L4.03 8.31994C4.03 8.18994 3.9 7.92994 3.9 7.79994C3.9 7.66994 4.03 7.40994 4.03 7.27994C4.16 7.27994 4.42 7.14994 4.55 7.14994C4.68 7.14994 4.94 7.27994 5.07 7.27994L6.5 8.83994L8.58 6.75994C8.71 6.62994 8.84 6.62994 9.1 6.62994C9.23 6.62994 9.49 6.75994 9.49 6.75994C9.62 6.88994 9.62 7.01994 9.62 7.27994V7.66994Z" fill="black"/>
<path d="M3.89766 2.6H9.09766C9.87766 2.6 10.3977 2.08 10.3977 1.3C10.3977 0.52 9.87766 0 9.09766 0H3.89766C3.11766 0 2.59766 0.52 2.59766 1.3C2.59766 2.08 3.11766 2.6 3.89766 2.6Z" fill="black"/>
<path d="M4 7.5L6.5 9.5L9.5 6.5" stroke="#FFE60A" stroke-width="2" stroke-linecap="round" stroke-linejoin="round"/>
</svg>
