<svg width="14" height="12" viewBox="0 0 14 12" fill="none" xmlns="http://www.w3.org/2000/svg">
<path d="M11.6667 0H2.33333C1.05 0 -2.05078e-08 1.08 0 2.4V9.6C0 10.92 1.05 12 2.33333 12H11.6667C12.95 12 14 10.92 14 9.6V2.4C14 1.08 12.95 -2.10937e-08 11.6667 0ZM7.58333 9.6H2.91667C2.45 9.6 2.21667 9 2.45 8.64L4.78333 5.4C5.01667 5.04 5.48333 5.04 5.71667 5.4L8.05 8.64C8.28333 9 8.05 9.6 7.58333 9.6ZM10.5 4.8C9.8 4.8 9.33333 4.32 9.33333 3.6C9.33333 2.88 9.8 2.4 10.5 2.4C11.2 2.4 11.6667 2.88 11.6667 3.6C11.6667 4.32 11.2 4.8 10.5 4.8Z" fill="#333333"/>
</svg>
