<svg width="13" height="14" viewBox="0 0 13 14" fill="none" xmlns="http://www.w3.org/2000/svg">
<path d="M1.32672 5.5854C0.713414 5.48139 0.232796 5.00097 0.128789 4.38746C-0.0429297 3.3745 -0.0429297 2.33969 0.128789 1.32674C0.232796 0.71342 0.713219 0.232798 1.32672 0.12879C2.33967 -0.0429301 3.37447 -0.0429301 4.38742 0.12879C5.00073 0.232798 5.48135 0.713225 5.58535 1.32674C5.75707 2.33969 5.75707 3.3745 5.58535 4.38746C5.48135 5.00077 5.00092 5.48139 4.38742 5.5854C3.37447 5.75712 2.33967 5.75712 1.32672 5.5854ZM8.5998 5.5854C7.98649 5.48139 7.50587 5.00097 7.40187 4.38746C7.23015 3.3745 7.23015 2.33969 7.40187 1.32674C7.50587 0.71342 7.9863 0.232798 8.5998 0.12879C9.61275 -0.0429301 10.6475 -0.0429301 11.6605 0.12879C12.2738 0.232798 12.7544 0.713225 12.8584 1.32674C13.0301 2.33969 13.0301 3.3745 12.8584 4.38746C12.7544 5.00077 12.274 5.48139 11.6605 5.5854C10.6475 5.75712 9.61275 5.75712 8.5998 5.5854ZM1.32672 13.2707C0.713414 13.1667 0.232796 12.6862 0.128789 12.0727C-0.0429297 11.0598 -0.0429297 10.025 0.128789 9.012C0.232796 8.39869 0.713219 7.91807 1.32672 7.81406C2.33967 7.64234 3.37447 7.64234 4.38742 7.81406C5.00073 7.91807 5.48135 8.39849 5.58535 9.012C5.75707 10.025 5.75707 11.0598 5.58535 12.0727C5.48135 12.686 5.00092 13.1667 4.38742 13.2707C3.37447 13.4424 2.33967 13.4424 1.32672 13.2707Z" fill="#333333"/>
<path d="M7.40186 12.0727C7.50587 12.6862 7.98649 13.1667 8.5998 13.2707C9.61274 13.4424 10.6475 13.4424 11.6605 13.2707C12.274 13.1667 12.7544 12.686 12.8584 12.0727C13.0301 11.0598 13.0301 10.025 12.8584 9.012C12.7544 8.39849 12.2738 7.91807 11.6605 7.81406C10.6475 7.64234 9.61274 7.64234 8.5998 7.81406C7.98629 7.91807 7.50587 8.39869 7.40186 9.012C7.23014 10.025 7.23014 11.0598 7.40186 12.0727Z" fill="#333333"/>
</svg>
